<?xml version="1.0" encoding="iso-8859-1"?>
<!-- Generator: Adobe Illustrator 16.0.0, SVG Export Plug-In . SVG Version: 6.00 Build 0)  -->
<!DOCTYPE svg PUBLIC "-//W3C//DTD SVG 1.1//EN" "http://www.w3.org/Graphics/SVG/1.1/DTD/svg11.dtd">
<svg version="1.1" id="Capa_1" xmlns="http://www.w3.org/2000/svg" xmlns:xlink="http://www.w3.org/1999/xlink" x="0px" y="0px"
	 width="512px" height="512px" viewBox="0 0 512 512" style="enable-background:new 0 0 512 512; fill:#FFFFFF;" xml:space="preserve">
<g>
	<g>
		<path d="M0,48v320h256v-4v-28H32V80h448v176h16c5.656,0,11,1.031,16,2.625V48H0z"/>
		<path d="M496,288H304c-8.844,0-16,5.375-16,12v4v20c0,6.625,7.156,12,16,12h192c8.844,0,16-5.375,16-12v-24
			C512,293.375,504.844,288,496,288z"/>
		<path d="M272,216h-8v32h8c3.594-0.094,8-1.563,8-8v-16C280,217.563,275.594,216.094,272,216z"/>
		<path d="M496,416H304c-8.844,0-16,5.375-16,12v24c0,6.625,7.156,12,16,12h192c8.844,0,16-5.375,16-12v-24
			C512,421.375,504.844,416,496,416z"/>
		<path d="M287.203,258.812C292.438,257.094,298.031,256,304,256h144V112H64v192h192v-4c0-15.688,8.547-29.156,21.656-36.906
			C275.719,263.531,273.75,264,272,264h-8v8c0,4.406-3.594,8-8,8s-8-3.594-8-8v-8h-24c-4.406,0-8-3.594-8-8s3.594-8,8-8h24v-32h-8
			c-9.656,0-24-6.375-24-24v-16c0-17.625,14.344-24,24-24h8v-8c0-4.406,3.594-8,8-8s8,3.594,8,8v8h24c4.406,0,8,3.594,8,8
			s-3.594,8-8,8h-24v32h8c9.656,0,24,6.375,24,24v16C296,249.031,292.188,255.063,287.203,258.812z M352,192h64v32h-64V192z
			 M160,224H96v-32h64V224z"/>
		<path d="M496,352H304c-8.844,0-16,5.375-16,12v24c0,6.625,7.156,12,16,12h192c8.844,0,16-5.375,16-12v-24
			C512,357.375,504.844,352,496,352z"/>
		<path d="M232,176v16c0,6.438,4.406,7.906,8,8h8v-32h-8C236.406,168.094,232,169.563,232,176z"/>
	</g>
</g>
<g>
</g>
<g>
</g>
<g>
</g>
<g>
</g>
<g>
</g>
<g>
</g>
<g>
</g>
<g>
</g>
<g>
</g>
<g>
</g>
<g>
</g>
<g>
</g>
<g>
</g>
<g>
</g>
<g>
</g>
</svg>
